<svg width="208" height="208" viewBox="0 0 208 208" fill="none" xmlns="http://www.w3.org/2000/svg">
<path d="M71.5 120.25V198.25H45.5C42.0522 198.25 38.7456 196.88 36.3076 194.442C33.8696 192.004 32.5 188.698 32.5 185.25V133.25C32.5 129.802 33.8696 126.496 36.3076 124.058C38.7456 121.62 42.0522 120.25 45.5 120.25H71.5Z" fill="#E6E7E8"/>
<path d="M71.5 120.25H136.5V198.25H71.5V120.25Z" fill="#172233"/>
<path d="M175.5 133.25V185.25C175.5 188.698 174.13 192.004 171.692 194.442C169.254 196.88 165.948 198.25 162.5 198.25H136.5V120.25H162.5C165.948 120.25 169.254 121.62 171.692 124.058C174.13 126.496 175.5 129.802 175.5 133.25Z" fill="#E6E7E8"/>
<path d="M104 143C107.448 143 110.754 144.37 113.192 146.808C115.63 149.246 117 152.552 117 156C117 165.75 104 175.5 104 175.5C104 175.5 91 165.75 91 156C91 152.552 92.3696 149.246 94.8076 146.808C97.2456 144.37 100.552 143 104 143Z" fill="#FF5023"/>
<path d="M188.5 94.25C192.09 94.25 195 91.3399 195 87.75C195 84.1601 192.09 81.25 188.5 81.25C184.91 81.25 182 84.1601 182 87.75C182 91.3399 184.91 94.25 188.5 94.25Z" fill="#F28818"/>
<path d="M19.5 94.25C23.0899 94.25 26 91.3399 26 87.75C26 84.1601 23.0899 81.25 19.5 81.25C15.9101 81.25 13 84.1601 13 87.75C13 91.3399 15.9101 94.25 19.5 94.25Z" fill="#F28818"/>
<path d="M58.5 81.25H71.5V94.25H58.5V81.25Z" fill="#F28818"/>
<path d="M136.5 81.25H149.5V94.25H136.5V81.25Z" fill="#F28818"/>
<path d="M191.75 9.75C193.472 9.75514 195.123 10.4416 196.341 11.6595C197.558 12.8774 198.245 14.5277 198.25 16.25C198.237 17.97 197.548 19.6159 196.332 20.8321C195.116 22.0483 193.47 22.7372 191.75 22.75H146.25C144.528 22.7449 142.877 22.0584 141.659 20.8405C140.442 19.6226 139.755 17.9723 139.75 16.25C139.763 14.53 140.452 12.8841 141.668 11.6679C142.884 10.4517 144.53 9.76276 146.25 9.75H191.75Z" fill="#F28818"/>
<path d="M175.5 29.25V35.75H162.5V29.25C162.5 27.5261 163.185 25.8728 164.404 24.6538C165.623 23.4348 167.276 22.75 169 22.75C170.724 22.75 172.377 23.4348 173.596 24.6538C174.815 25.8728 175.5 27.5261 175.5 29.25Z" fill="#F28818"/>
<path d="M136.5 61.75V81.25H71.5V61.75C71.5051 60.0277 72.1916 58.3774 73.4095 57.1595C74.6274 55.9416 76.2777 55.2551 78 55.25H130C131.722 55.2551 133.373 55.9416 134.591 57.1595C135.808 58.3774 136.495 60.0277 136.5 61.75Z" fill="#E6E7E8"/>
<path d="M126.75 22.75L130 35.75H78L81.25 22.75H126.75Z" fill="#F28818"/>
<path d="M104 81.25C111.18 81.25 117 75.4297 117 68.25C117 61.0703 111.18 55.25 104 55.25C96.8203 55.25 91 61.0703 91 68.25C91 75.4297 96.8203 81.25 104 81.25Z" fill="#F28818"/>
<path d="M13 58.5V39C13 38.138 13.3424 37.3114 13.9519 36.7019C14.5614 36.0924 15.388 35.75 16.25 35.75H191.75C192.612 35.75 193.439 36.0924 194.048 36.7019C194.658 37.3114 195 38.138 195 39V58.5C195 59.362 194.658 60.1886 194.048 60.7981C193.439 61.4076 192.612 61.75 191.75 61.75H156L152.75 81.25H136.5V61.75C136.495 60.0277 135.808 58.3774 134.591 57.1595C133.373 55.9416 131.722 55.2551 130 55.25H78C76.2777 55.2551 74.6274 55.9416 73.4095 57.1595C72.1916 58.3774 71.5051 60.0277 71.5 61.75V81.25H55.25L52 61.75H16.25C15.388 61.75 14.5614 61.4076 13.9519 60.7981C13.3424 60.1886 13 59.362 13 58.5Z" fill="#F28818"/>
<path d="M45.5 29.25V35.75H32.5V29.25C32.5 27.5261 33.1848 25.8728 34.4038 24.6538C35.6228 23.4348 37.2761 22.75 39 22.75C40.7239 22.75 42.3772 23.4348 43.5962 24.6538C44.8152 25.8728 45.5 27.5261 45.5 29.25V29.25Z" fill="#F28818"/>
<path d="M66.3325 11.6675C66.9435 12.2634 67.4282 12.9763 67.7576 13.7636C68.0871 14.5509 68.2545 15.3965 68.25 16.25C68.2449 17.9723 67.5584 19.6226 66.3405 20.8405C65.1226 22.0584 63.4723 22.7449 61.75 22.75H16.25C14.53 22.7372 12.8841 22.0483 11.6679 20.8321C10.4517 19.6159 9.76276 17.97 9.75 16.25C9.75514 14.5277 10.4416 12.8774 11.6595 11.6595C12.8774 10.4416 14.5277 9.75514 16.25 9.75H61.75C62.6035 9.74546 63.4491 9.91291 64.2364 10.2424C65.0237 10.5718 65.7366 11.0565 66.3325 11.6675V11.6675Z" fill="#F28818"/>
<path d="M201.5 16.25C201.5 13.6641 200.473 11.1842 198.644 9.35571C196.816 7.52723 194.336 6.5 191.75 6.5H146.25C143.664 6.5 141.184 7.52723 139.356 9.35571C137.527 11.1842 136.5 13.6641 136.5 16.25C136.5 18.8359 137.527 21.3158 139.356 23.1443C141.184 24.9728 143.664 26 146.25 26H159.848C159.463 27.0408 159.261 28.1403 159.25 29.25V32.5H132.535L129.903 21.9602C129.726 21.2574 129.321 20.6336 128.749 20.1879C128.178 19.7421 127.475 19.5 126.75 19.5H81.25C80.5255 19.5 79.8217 19.7421 79.2506 20.1879C78.6794 20.6336 78.2736 21.2574 78.0975 21.9602L75.465 32.5H48.75V29.25C48.7392 28.1403 48.5369 27.0408 48.152 26H61.75C64.3359 26 66.8158 24.9728 68.6443 23.1443C70.4728 21.3158 71.5 18.8359 71.5 16.25C71.5 13.6641 70.4728 11.1842 68.6443 9.35571C66.8158 7.52723 64.3359 6.5 61.75 6.5H16.25C13.6641 6.5 11.1842 7.52723 9.35571 9.35571C7.52723 11.1842 6.5 13.6641 6.5 16.25C6.5 18.8359 7.52723 21.3158 9.35571 23.1443C11.1842 24.9728 13.6641 26 16.25 26H29.848C29.4631 27.0408 29.2608 28.1403 29.25 29.25V32.5H16.25C14.5261 32.5 12.8728 33.1848 11.6538 34.4038C10.4348 35.6228 9.75 37.2761 9.75 39V58.5C9.75 60.2239 10.4348 61.8772 11.6538 63.0962C12.8728 64.3152 14.5261 65 16.25 65H49.2472L52.0455 81.7863C52.1724 82.5445 52.5639 83.2333 53.1506 83.7301C53.7373 84.227 54.4812 84.4998 55.25 84.5V94.25C55.25 95.112 55.5924 95.9386 56.2019 96.5481C56.8114 97.1576 57.638 97.5 58.5 97.5H71.5C72.362 97.5 73.1886 97.1576 73.7981 96.5481C74.4076 95.9386 74.75 95.112 74.75 94.25V84.5H133.25V94.25C133.25 95.112 133.592 95.9386 134.202 96.5481C134.811 97.1576 135.638 97.5 136.5 97.5H149.5C150.362 97.5 151.189 97.1576 151.798 96.5481C152.408 95.9386 152.75 95.112 152.75 94.25V84.5C153.519 84.4998 154.263 84.227 154.849 83.7301C155.436 83.2333 155.828 82.5445 155.955 81.7863L158.753 65H191.75C193.474 65 195.127 64.3152 196.346 63.0962C197.565 61.8772 198.25 60.2239 198.25 58.5V39C198.25 37.2761 197.565 35.6228 196.346 34.4038C195.127 33.1848 193.474 32.5 191.75 32.5H178.75V29.25C178.739 28.1403 178.537 27.0408 178.152 26H191.75C194.336 26 196.816 24.9728 198.644 23.1443C200.473 21.3158 201.5 18.8359 201.5 16.25V16.25ZM143 16.25C143 15.388 143.342 14.5614 143.952 13.9519C144.561 13.3424 145.388 13 146.25 13H191.75C192.612 13 193.439 13.3424 194.048 13.9519C194.658 14.5614 195 15.388 195 16.25C195 17.112 194.658 17.9386 194.048 18.5481C193.439 19.1576 192.612 19.5 191.75 19.5H146.25C145.388 19.5 144.561 19.1576 143.952 18.5481C143.342 17.9386 143 17.112 143 16.25ZM83.7883 26H124.212L125.837 32.5H82.1633L83.7883 26ZM13 16.25C13 15.388 13.3424 14.5614 13.9519 13.9519C14.5614 13.3424 15.388 13 16.25 13H61.75C62.612 13 63.4386 13.3424 64.0481 13.9519C64.6576 14.5614 65 15.388 65 16.25C65 17.112 64.6576 17.9386 64.0481 18.5481C63.4386 19.1576 62.612 19.5 61.75 19.5H16.25C15.388 19.5 14.5614 19.1576 13.9519 18.5481C13.3424 17.9386 13 17.112 13 16.25ZM35.75 29.25C35.75 28.388 36.0924 27.5614 36.7019 26.9519C37.3114 26.3424 38.138 26 39 26C39.862 26 40.6886 26.3424 41.2981 26.9519C41.9076 27.5614 42.25 28.388 42.25 29.25V32.5H35.75V29.25ZM68.25 91H61.75V84.5H68.25V91ZM133.25 78H116.915C119.076 75.2092 120.249 71.7796 120.249 68.25C120.249 64.7204 119.076 61.2908 116.915 58.5H130C130.862 58.5 131.689 58.8424 132.298 59.4519C132.908 60.0614 133.25 60.888 133.25 61.75V78ZM113.75 68.25C113.75 70.1784 113.178 72.0634 112.107 73.6668C111.035 75.2702 109.513 76.5199 107.731 77.2578C105.95 77.9958 103.989 78.1889 102.098 77.8127C100.207 77.4365 98.4693 76.5079 97.1057 75.1443C95.7421 73.7807 94.8135 72.0434 94.4373 70.1521C94.0611 68.2608 94.2542 66.3004 94.9922 64.5188C95.7301 62.7373 96.9798 61.2145 98.5832 60.1432C100.187 59.0718 102.072 58.5 104 58.5C106.586 58.5 109.066 59.5272 110.894 61.3557C112.723 63.1842 113.75 65.6641 113.75 68.25ZM91.0845 78H74.75V61.75C74.75 60.888 75.0924 60.0614 75.7019 59.4519C76.3114 58.8424 77.138 58.5 78 58.5H91.0845C88.9235 61.2908 87.7509 64.7204 87.7509 68.25C87.7509 71.7796 88.9235 75.2092 91.0845 78V78ZM146.25 91H139.75V84.5H146.25V91ZM191.75 58.5H156C155.231 58.5002 154.487 58.773 153.901 59.2699C153.314 59.7667 152.922 60.4555 152.795 61.2137L149.997 78H139.75V61.75C139.75 59.1641 138.723 56.6842 136.894 54.8557C135.066 53.0272 132.586 52 130 52H78C75.4141 52 72.9342 53.0272 71.1057 54.8557C69.2772 56.6842 68.25 59.1641 68.25 61.75V78H58.0028L55.2045 61.2137C55.0776 60.4555 54.6861 59.7667 54.0994 59.2699C53.5127 58.773 52.7688 58.5002 52 58.5H16.25V39H191.75V58.5ZM172.25 29.25V32.5H165.75V29.25C165.75 28.388 166.092 27.5614 166.702 26.9519C167.311 26.3424 168.138 26 169 26C169.862 26 170.689 26.3424 171.298 26.9519C171.908 27.5614 172.25 28.388 172.25 29.25V29.25Z" fill="black"/>
<path d="M100.75 65H107.25V71.5H100.75V65Z" fill="black"/>
<path d="M22.75 45.5H35.75V52H22.75V45.5Z" fill="black"/>
<path d="M42.25 45.5H48.75V52H42.25V45.5Z" fill="black"/>
<path d="M172.25 45.5H185.25V52H172.25V45.5Z" fill="black"/>
<path d="M159.25 45.5H165.75V52H159.25V45.5Z" fill="black"/>
<path d="M146.25 45.5H152.75V52H146.25V45.5Z" fill="black"/>
<path d="M55.25 45.5H61.75V52H55.25V45.5Z" fill="black"/>
<path d="M162.5 117H45.5C41.1918 117.005 37.0616 118.719 34.0152 121.765C30.9689 124.812 29.2552 128.942 29.25 133.25V185.25C29.2552 189.558 30.9689 193.688 34.0152 196.735C37.0616 199.781 41.1918 201.495 45.5 201.5H162.5C166.808 201.495 170.938 199.781 173.985 196.735C177.031 193.688 178.745 189.558 178.75 185.25V133.25C178.745 128.942 177.031 124.812 173.985 121.765C170.938 118.719 166.808 117.005 162.5 117V117ZM133.25 123.5V195H74.75V123.5H133.25ZM35.75 185.25V133.25C35.75 130.664 36.7772 128.184 38.6057 126.356C40.4342 124.527 42.9141 123.5 45.5 123.5H68.25V195H45.5C42.9141 195 40.4342 193.973 38.6057 192.144C36.7772 190.316 35.75 187.836 35.75 185.25V185.25ZM172.25 185.25C172.25 187.836 171.223 190.316 169.394 192.144C167.566 193.973 165.086 195 162.5 195H139.75V123.5H162.5C165.086 123.5 167.566 124.527 169.394 126.356C171.223 128.184 172.25 130.664 172.25 133.25V185.25Z" fill="black"/>
<path d="M55.25 162.5V156H48.75V162.5H42.25V169H48.75V175.5H55.25V169H61.75V162.5H55.25Z" fill="black"/>
<path d="M42.25 182H61.75V188.5H42.25V182Z" fill="black"/>
<path d="M152.75 156H159.25V162.5H152.75V156Z" fill="black"/>
<path d="M159.25 162.5H165.75V169H159.25V162.5Z" fill="black"/>
<path d="M146.25 162.5H152.75V169H146.25V162.5Z" fill="black"/>
<path d="M152.75 169H159.25V175.5H152.75V169Z" fill="black"/>
<path d="M146.25 182H165.75V188.5H146.25V182Z" fill="black"/>
<path d="M102.05 178.1C102.613 178.522 103.297 178.75 104 178.75C104.703 178.75 105.387 178.522 105.95 178.1C107.416 177.001 120.25 167.05 120.25 156C120.25 151.69 118.538 147.557 115.49 144.51C112.443 141.462 108.31 139.75 104 139.75C99.6902 139.75 95.557 141.462 92.5095 144.51C89.462 147.557 87.75 151.69 87.75 156C87.75 167.05 100.584 177.001 102.05 178.1ZM104 146.25C106.586 146.25 109.066 147.277 110.894 149.106C112.723 150.934 113.75 153.414 113.75 156C113.75 161.551 107.838 167.928 104 171.301C100.162 167.928 94.25 161.551 94.25 156C94.25 153.414 95.2772 150.934 97.1057 149.106C98.9342 147.277 101.414 146.25 104 146.25Z" fill="black"/>
<path d="M100.75 152.75H107.25V159.25H100.75V152.75Z" fill="black"/>
<path d="M188.5 78C186.572 78 184.687 78.5718 183.083 79.6432C181.48 80.7145 180.23 82.2373 179.492 84.0188C178.754 85.8004 178.561 87.7608 178.937 89.6521C179.314 91.5434 180.242 93.2807 181.606 94.6443C182.969 96.0079 184.707 96.9364 186.598 97.3127C188.489 97.6889 190.45 97.4958 192.231 96.7578C194.013 96.0199 195.535 94.7702 196.607 93.1668C197.678 91.5634 198.25 89.6784 198.25 87.75C198.25 85.1641 197.223 82.6842 195.394 80.8557C193.566 79.0272 191.086 78 188.5 78ZM188.5 91C187.857 91 187.229 90.8094 186.694 90.4523C186.16 90.0952 185.743 89.5876 185.497 88.9937C185.251 88.3999 185.187 87.7464 185.312 87.116C185.438 86.4855 185.747 85.9064 186.202 85.4519C186.656 84.9974 187.236 84.6878 187.866 84.5624C188.496 84.437 189.15 84.5014 189.744 84.7474C190.338 84.9934 190.845 85.4099 191.202 85.9444C191.559 86.4789 191.75 87.1072 191.75 87.75C191.75 88.612 191.408 89.4386 190.798 90.0481C190.189 90.6576 189.362 91 188.5 91Z" fill="black"/>
<path d="M185.25 104H191.75V110.5H185.25V104Z" fill="black"/>
<path d="M185.25 117H191.75V123.5H185.25V117Z" fill="black"/>
<path d="M185.25 130H191.75V136.5H185.25V130Z" fill="black"/>
<path d="M19.5 78C17.5716 78 15.6866 78.5718 14.0832 79.6432C12.4798 80.7145 11.2301 82.2373 10.4922 84.0188C9.75422 85.8004 9.56114 87.7608 9.93735 89.6521C10.3136 91.5434 11.2422 93.2807 12.6057 94.6443C13.9693 96.0079 15.7066 96.9364 17.5979 97.3127C19.4892 97.6889 21.4496 97.4958 23.2312 96.7578C25.0127 96.0199 26.5355 94.7702 27.6068 93.1668C28.6782 91.5634 29.25 89.6784 29.25 87.75C29.25 85.1641 28.2228 82.6842 26.3943 80.8557C24.5658 79.0272 22.0859 78 19.5 78ZM19.5 91C18.8572 91 18.2289 90.8094 17.6944 90.4523C17.1599 90.0952 16.7434 89.5876 16.4974 88.9937C16.2514 88.3999 16.187 87.7464 16.3125 87.116C16.4379 86.4855 16.7474 85.9064 17.2019 85.4519C17.6564 84.9974 18.2355 84.6878 18.866 84.5624C19.4964 84.437 20.1499 84.5014 20.7437 84.7474C21.3376 84.9934 21.8452 85.4099 22.2023 85.9444C22.5594 86.4789 22.75 87.1072 22.75 87.75C22.75 88.612 22.4076 89.4386 21.7981 90.0481C21.1886 90.6576 20.362 91 19.5 91Z" fill="black"/>
<path d="M16.25 104H22.75V110.5H16.25V104Z" fill="black"/>
<path d="M16.25 117H22.75V123.5H16.25V117Z" fill="black"/>
<path d="M16.25 130H22.75V136.5H16.25V130Z" fill="black"/>
</svg>
